<svg width="26" height="26" viewBox="0 0 26 26" fill="none" xmlns="http://www.w3.org/2000/svg">
<path d="M19.7666 17.1995C18.9172 16.3609 17.8568 16.3609 17.0128 17.1995C16.3689 17.8379 15.7251 18.4764 15.0921 19.1256C14.919 19.3041 14.7729 19.342 14.5619 19.223C14.1453 18.9958 13.7016 18.8118 13.3013 18.5629C11.4347 17.3889 9.8711 15.8794 8.48605 14.1805C7.79893 13.3365 7.18756 12.433 6.76014 11.4158C6.67358 11.2103 6.68981 11.075 6.85753 10.9073C7.50136 10.2851 8.12896 9.64666 8.76198 9.00824C9.64386 8.12094 9.64386 7.08215 8.75657 6.18945C8.2534 5.68087 7.75024 5.18312 7.24708 4.67455C6.72768 4.15515 6.2137 3.63035 5.68889 3.11636C4.83947 2.28858 3.77904 2.28858 2.93502 3.12177C2.28578 3.7602 1.66359 4.41485 1.00353 5.04245C0.392157 5.62136 0.0837665 6.33012 0.0188422 7.1579C-0.0839545 8.50508 0.246077 9.77651 0.711368 11.0155C1.66359 13.58 3.11357 15.8577 4.87193 17.9461C7.24708 20.7704 10.0821 23.0048 13.3986 24.6171C14.8919 25.3421 16.4393 25.8994 18.1219 25.9913C19.2797 26.0563 20.286 25.7641 21.0922 24.8606C21.644 24.2438 22.2662 23.6811 22.8505 23.0914C23.7162 22.2149 23.7216 21.1545 22.8614 20.2888C21.8334 19.2555 20.8 18.2275 19.7666 17.1995Z" fill="url(#paint0_linear_532_4057)"/>
<path d="M18.732 12.8874L20.7284 12.5465C20.4146 10.7124 19.549 9.05143 18.2343 7.7313C16.8438 6.34084 15.0854 5.46437 13.1485 5.19385L12.8672 7.20109C14.3659 7.41209 15.7293 8.08839 16.8059 9.16505C17.8231 10.1822 18.4885 11.4699 18.732 12.8874Z" fill="url(#paint1_linear_532_4057)"/>
<path d="M21.8543 4.20926C19.5495 1.90444 16.6333 0.449059 13.4142 0L13.1328 2.00724C15.9137 2.39679 18.435 3.6574 20.426 5.643C22.3142 7.53121 23.5532 9.91718 24.0022 12.5412L25.9986 12.2003C25.4738 9.15973 24.0401 6.40045 21.8543 4.20926Z" fill="url(#paint2_linear_532_4057)"/>
<defs>
<linearGradient id="paint0_linear_532_4057" x1="22.0159" y1="14.034" x2="0.140775" y2="14.034" gradientUnits="userSpaceOnUse">
<stop stop-color="#5E2FF4"/>
<stop offset="0.174673" stop-color="#8CA7FF"/>
<stop offset="0.395416" stop-color="#E4DAFF"/>
<stop offset="0.604935" stop-color="#C570FB"/>
<stop offset="0.844385" stop-color="#C3B1FE"/>
<stop offset="1" stop-color="#5E2FF4"/>
</linearGradient>
<linearGradient id="paint1_linear_532_4057" x1="20.231" y1="8.97053" x2="12.9143" y2="8.97053" gradientUnits="userSpaceOnUse">
<stop stop-color="#5E2FF4"/>
<stop offset="0.174673" stop-color="#8CA7FF"/>
<stop offset="0.395416" stop-color="#E4DAFF"/>
<stop offset="0.604935" stop-color="#C570FB"/>
<stop offset="0.844385" stop-color="#C3B1FE"/>
<stop offset="1" stop-color="#5E2FF4"/>
</linearGradient>
<linearGradient id="paint2_linear_532_4057" x1="25.1845" y1="6.15636" x2="13.2099" y2="6.15636" gradientUnits="userSpaceOnUse">
<stop stop-color="#5E2FF4"/>
<stop offset="0.174673" stop-color="#8CA7FF"/>
<stop offset="0.395416" stop-color="#E4DAFF"/>
<stop offset="0.604935" stop-color="#C570FB"/>
<stop offset="0.844385" stop-color="#C3B1FE"/>
<stop offset="1" stop-color="#5E2FF4"/>
</linearGradient>
</defs>
</svg>
