<svg width="21" height="26" viewBox="0 0 21 26" fill="none" xmlns="http://www.w3.org/2000/svg">
<path d="M10.5 0C7.91519 0.00342881 5.43723 1.03176 3.6095 2.8595C1.78176 4.68723 0.753429 7.16519 0.75 9.75C0.75 16.7497 9.83375 25.5166 10.2197 25.8863C10.2948 25.9592 10.3953 26 10.5 26C10.6047 26 10.7052 25.9592 10.7803 25.8863C11.1663 25.5166 20.25 16.7497 20.25 9.75C20.2466 7.16519 19.2182 4.68723 17.3905 2.8595C15.5628 1.03176 13.0848 0.00342881 10.5 0V0ZM10.5 14.2188C9.61617 14.2188 8.75218 13.9567 8.0173 13.4656C7.28242 12.9746 6.70964 12.2767 6.37142 11.4601C6.03319 10.6436 5.94469 9.74504 6.11712 8.87819C6.28955 8.01134 6.71515 7.21508 7.34012 6.59012C7.96508 5.96515 8.76134 5.53954 9.62819 5.36712C10.495 5.19469 11.3936 5.28319 12.2101 5.62141C13.0267 5.95964 13.7246 6.53241 14.2156 7.2673C14.7067 8.00218 14.9688 8.86617 14.9688 9.75C14.968 10.935 14.497 12.0712 13.6591 12.9091C12.8212 13.747 11.685 14.218 10.5 14.2188Z" fill="url(#paint0_linear_532_4096)"/>
<defs>
<linearGradient id="paint0_linear_532_4096" x1="19.016" y1="12.7632" x2="0.866797" y2="12.7632" gradientUnits="userSpaceOnUse">
<stop stop-color="#5E2FF4"/>
<stop offset="0.174673" stop-color="#8CA7FF"/>
<stop offset="0.395416" stop-color="#E4DAFF"/>
<stop offset="0.604935" stop-color="#C570FB"/>
<stop offset="0.844385" stop-color="#C3B1FE"/>
<stop offset="1" stop-color="#5E2FF4"/>
</linearGradient>
</defs>
</svg>
