<svg width="23" height="23" viewBox="0 0 23 23" fill="none" xmlns="http://www.w3.org/2000/svg">
<path fill-rule="evenodd" clip-rule="evenodd" d="M6.81209 16.5908L1.79529 13.5323C0.873141 12.9701 0.580335 11.7627 1.14253 10.8405L4.41744 5.46878C4.75545 4.91435 5.16726 4.4079 5.64177 3.96395C5.66224 3.94507 5.68364 3.92712 5.70633 3.91072L9.67556 1.05114C10.1021 0.68097 10.726 0.626391 11.211 0.92209L13.0172 2.02324C13.1838 2.12479 13.2963 2.29534 13.3236 2.48819C13.3514 2.68138 13.2914 2.87662 13.1596 3.02062L9.65927 6.85752L11.9096 8.22948C12.8318 8.79167 13.1246 9.99911 12.5624 10.9213L9.50387 15.9381C8.94168 16.8602 7.73424 17.153 6.81209 16.5908ZM16.2867 22.3679L11.2699 19.3094C10.3477 18.7472 10.0549 17.5398 10.6171 16.6176L13.8921 11.2459C14.2304 10.6909 14.6422 10.1845 15.1164 9.74104C15.1366 9.72199 15.1582 9.70421 15.1809 9.68781L19.1503 6.82796C19.577 6.45823 20.2011 6.40382 20.6859 6.69935L22.4918 7.80034C22.6584 7.90189 22.7707 8.07228 22.7982 8.26529C22.8258 8.45831 22.7657 8.65355 22.6342 8.79772L19.1342 12.6348L21.3843 14.0066C22.3064 14.5688 22.5992 15.7762 22.037 16.6984L18.9785 21.7152C18.4163 22.6373 17.2088 22.9301 16.2867 22.3679Z" fill="white"/>
</svg>
