<svg width="31" height="31" viewBox="0 0 31 31" fill="none" xmlns="http://www.w3.org/2000/svg">
<g clip-path="url(#clip0_101_326)">
<path d="M15.1899 30.6104C6.86744 30.6104 0.189941 23.8379 0.189941 15.6104C0.189941 7.28785 6.86744 0.610352 15.1899 0.610352C23.5124 0.610352 30.1899 7.28785 30.1899 15.6104C30.1899 23.8379 23.5124 30.6104 15.1899 30.6104ZM15.1899 3.12785C8.31869 3.12785 2.70619 8.7391 2.70619 15.6104C2.70619 22.4829 8.31869 28.0954 15.1899 28.0954C22.0624 28.0954 27.6737 22.4829 27.6737 15.6104C27.6737 8.7391 22.0624 3.12785 15.1899 3.12785ZM22.5462 17.0629H11.7062C11.2262 17.0629 10.8374 16.6766 10.8337 16.1991V14.9341C10.8337 14.4504 11.2224 14.0629 11.7062 14.0629H22.6412C23.1249 14.0629 23.5124 14.4516 23.5124 14.9341V16.1916C23.4162 16.6754 23.0287 17.0629 22.5462 17.0629ZM19.7387 12.2241H8.80369C8.32494 12.2266 7.93244 11.8404 7.93119 11.3604V10.0979C7.93119 9.7091 8.31869 9.3216 8.80244 9.3216H19.7374C20.1249 9.3216 20.5124 9.71035 20.5124 10.0954V11.3529C20.5137 11.8354 20.1249 12.2241 19.7387 12.2241ZM8.80369 18.9966H19.7387C20.2237 18.9966 20.6087 19.3854 20.6087 19.8679V21.1254C20.6112 21.6041 20.2224 21.9941 19.7449 21.9966H8.80369C8.31869 21.9016 7.93244 21.5129 7.93244 21.0304V19.7729C7.93119 19.3854 8.31869 18.9966 8.80369 18.9966Z" fill="#3D88FB"/>
</g>
<defs>
<clipPath id="clip0_101_326">
<rect width="30" height="30" fill="white" transform="translate(0.189941 0.610352)"/>
</clipPath>
</defs>
</svg>
