<svg width="46" height="46" viewBox="0 0 46 46" fill="none" xmlns="http://www.w3.org/2000/svg">
<path d="M28.7499 29.7083C28.7499 36.5892 23.1724 42.1667 16.2916 42.1667C9.41075 42.1667 3.83325 36.5892 3.83325 29.7083C3.83325 22.8275 9.41075 17.25 16.2916 17.25C16.6174 17.25 16.9624 17.2692 17.2882 17.2883C23.3641 17.7675 28.2324 22.6358 28.7116 28.7117C28.7308 29.0375 28.7499 29.3825 28.7499 29.7083Z" fill="white"/>
<path opacity="0.3" d="M42.1667 16.2917C42.1667 23.1725 36.5892 28.75 29.7083 28.75C29.3825 28.75 29.0375 28.7309 28.7117 28.7117C28.2325 22.6359 23.3641 17.7675 17.2883 17.2884C17.2691 16.9625 17.25 16.6175 17.25 16.2917C17.25 9.41087 22.8275 3.83337 29.7083 3.83337C36.5892 3.83337 42.1667 9.41087 42.1667 16.2917Z" fill="white"/>
<path d="M10.7141 3.83337H5.74992C4.69575 3.83337 3.83325 4.69587 3.83325 5.75004V10.7142C3.83325 12.42 5.90324 13.2825 7.11074 12.075L12.0749 7.11089C13.2632 5.90339 12.4199 3.83337 10.7141 3.83337Z" fill="white"/>
<path d="M35.2857 42.1666H40.2499C41.304 42.1666 42.1665 41.3041 42.1665 40.25V35.2858C42.1665 33.58 40.0965 32.7175 38.889 33.925L33.9249 38.8891C32.7366 40.0966 33.5799 42.1666 35.2857 42.1666Z" fill="white"/>
</svg>
