<svg width="46" height="46" viewBox="0 0 46 46" fill="none" xmlns="http://www.w3.org/2000/svg">
<path opacity="0.3" d="M33.5992 14.8925C33.4651 14.8734 33.3309 14.8734 33.1967 14.8925C30.2259 14.7967 27.8684 12.3625 27.8684 9.37254C27.8684 6.32504 30.3409 3.83337 33.4076 3.83337C36.4551 3.83337 38.9467 6.30587 38.9467 9.37254C38.9276 12.3625 36.5701 14.7967 33.5992 14.8925Z" fill="white"/>
<path opacity="0.3" d="M39.8472 28.175C37.7006 29.6125 34.6914 30.1492 31.9122 29.785C32.6406 28.2133 33.0239 26.4692 33.0431 24.6292C33.0431 22.7125 32.6214 20.8917 31.8164 19.3009C34.6531 18.9175 37.6622 19.4542 39.8281 20.8917C42.8564 22.885 42.8564 26.1625 39.8472 28.175Z" fill="white"/>
<path opacity="0.3" d="M12.3436 14.8925C12.4778 14.8734 12.6119 14.8734 12.7461 14.8925C15.7169 14.7967 18.0744 12.3625 18.0744 9.37254C18.0744 6.32504 15.6019 3.83337 12.5353 3.83337C9.48776 3.83337 6.99609 6.30587 6.99609 9.37254C7.01526 12.3625 9.37275 14.7967 12.3436 14.8925Z" fill="white"/>
<path opacity="0.3" d="M12.5546 24.6292C12.5546 26.4884 12.9571 28.2517 13.6855 29.8425C10.983 30.13 8.16547 29.555 6.09547 28.1942C3.06714 26.1817 3.06714 22.9042 6.09547 20.8917C8.1463 19.5117 11.0405 18.9559 13.7621 19.2625C12.9763 20.8725 12.5546 22.6934 12.5546 24.6292Z" fill="white"/>
<path d="M23.23 30.4175C23.0766 30.3983 22.9041 30.3983 22.7316 30.4175C19.205 30.3025 16.3875 27.4083 16.3875 23.8433C16.3875 20.2017 19.32 17.25 22.9808 17.25C26.6225 17.25 29.5741 20.2017 29.5741 23.8433C29.5741 27.4083 26.7758 30.3025 23.23 30.4175Z" fill="#DAEDF8"/>
<path d="M17.0009 34.3851C14.1068 36.3209 14.1068 39.5026 17.0009 41.4192C20.2976 43.6234 25.7026 43.6234 28.9993 41.4192C31.8935 39.4834 31.8935 36.3017 28.9993 34.3851C25.7218 32.1809 20.3168 32.1809 17.0009 34.3851Z" fill="#DAEDF8"/>
</svg>
