<svg width="46" height="46" viewBox="0 0 46 46" fill="none" xmlns="http://www.w3.org/2000/svg">
<path d="M9.58341 28.75C5.34758 28.75 1.91675 32.1808 1.91675 36.4167C1.91675 37.8542 2.31925 39.215 3.02842 40.365C4.35092 42.5883 6.78508 44.0833 9.58341 44.0833C12.3817 44.0833 14.8159 42.5883 16.1384 40.365C16.8476 39.215 17.2501 37.8542 17.2501 36.4167C17.2501 32.1808 13.8192 28.75 9.58341 28.75ZM13.3593 35.7841L9.27675 39.56C9.00841 39.8092 8.64425 39.9434 8.29925 39.9434C7.93508 39.9434 7.57091 39.8092 7.28341 39.5217L5.38592 37.6242C4.83008 37.0683 4.83008 36.1483 5.38592 35.5925C5.94175 35.0367 6.86175 35.0367 7.41758 35.5925L8.33758 36.5125L11.4042 33.6758C11.9792 33.1392 12.8992 33.1775 13.4359 33.7525C13.9726 34.3275 13.9342 35.2475 13.3593 35.7841Z" fill="white"/>
<path d="M34.0209 13.5125C33.5609 13.4358 33.0818 13.4167 32.5834 13.4167H13.4168C12.8801 13.4167 12.3626 13.455 11.8643 13.5317C12.1326 12.995 12.5159 12.4967 12.9759 12.0367L19.2051 5.78837C21.8309 3.18171 26.0859 3.18171 28.7118 5.78837L32.0659 9.18079C33.2926 10.3883 33.9443 11.9216 34.0209 13.5125Z" fill="white"/>
<path opacity="0.3" d="M42.1666 23V32.5833C42.1666 38.3333 38.3333 42.1666 32.5833 42.1666H14.6241C15.2183 41.6683 15.7357 41.055 16.1382 40.365C16.8474 39.215 17.2499 37.8541 17.2499 36.4166C17.2499 32.1808 13.8191 28.75 9.58325 28.75C7.28325 28.75 5.23242 29.7658 3.83325 31.3566V23C3.83325 17.7866 6.97658 14.145 11.8641 13.5316C12.3624 13.455 12.8799 13.4166 13.4166 13.4166H32.5833C33.0816 13.4166 33.5608 13.4358 34.0208 13.5124C38.9658 14.0874 42.1666 17.7483 42.1666 23Z" fill="white"/>
<path d="M42.1666 23.9584H36.4166C34.3083 23.9584 32.5833 25.6834 32.5833 27.7917C32.5833 29.9 34.3083 31.625 36.4166 31.625H42.1666" fill="white"/>
</svg>
