<svg width="46" height="46" viewBox="0 0 46 46" fill="none" xmlns="http://www.w3.org/2000/svg">
<path opacity="0.3" d="M45.0991 23.0959C44.5432 22.54 43.6232 22.54 43.0674 23.0959L42.1857 23.9776V23.0001C42.1857 12.4201 33.5799 3.81421 22.9999 3.81421C17.1541 3.81421 11.6916 6.44004 8.03074 11.0017C7.5324 11.615 7.62823 12.535 8.26073 13.0142C8.87406 13.5125 9.79407 13.4167 10.2732 12.7842C13.3974 8.89336 18.0357 6.67002 22.9999 6.67002C31.9891 6.67002 39.3107 13.9917 39.3107 22.9809V23.9392L38.4291 23.0576C37.8732 22.5018 36.9532 22.5018 36.3974 23.0576C35.8416 23.6135 35.8416 24.5334 36.3974 25.0893L39.7324 28.4243C39.8666 28.5584 40.0199 28.6542 40.1924 28.7309C40.3649 28.8075 40.5566 28.8459 40.7482 28.8459C40.9399 28.8459 41.1124 28.8075 41.3041 28.7309C41.4766 28.6542 41.6299 28.5584 41.7641 28.4243L45.0991 25.0893C45.6549 24.5718 45.6549 23.6517 45.0991 23.0959Z" fill="white"/>
<path opacity="0.3" d="M37.7392 32.9667C37.1259 32.4684 36.2059 32.5642 35.7267 33.1967C32.6025 37.0875 27.9642 39.3109 23 39.3109C14.0109 39.3109 6.6892 31.9892 6.6892 23V22.0417L7.57087 22.9234C7.85837 23.2109 8.22255 23.345 8.58672 23.345C8.95088 23.345 9.31505 23.2109 9.60255 22.9234C10.1584 22.3676 10.1584 21.4476 9.60255 20.8917L6.26754 17.5566C6.13337 17.4225 5.98004 17.3267 5.80754 17.25C5.46254 17.0967 5.06004 17.0967 4.71504 17.25C4.54254 17.3267 4.38921 17.4225 4.25504 17.5566L0.920049 20.8917C0.364216 21.4476 0.364216 22.3676 0.920049 22.9234C1.47588 23.4792 2.39588 23.4792 2.95171 22.9234L3.83338 22.0417V23C3.83338 33.58 12.4392 42.1859 23.0192 42.1859C28.865 42.1859 34.3275 39.56 37.9884 34.9984C38.4675 34.385 38.3717 33.465 37.7392 32.9667Z" fill="white"/>
<path d="M29.6125 22.31C30.13 21.5434 30.4175 20.6425 30.4175 19.6458C30.4175 17.0967 28.175 14.8542 25.6258 14.8542H24.0542V12.9375C24.0542 12.1517 23.4025 11.5 22.6167 11.5C21.8308 11.5 21.1792 12.1517 21.1792 12.9375V14.8542H17.25C16.4642 14.8542 15.8125 15.5058 15.8125 16.2917V23V29.7083C15.8125 30.4942 16.4642 31.1458 17.25 31.1458H21.1792V33.0625C21.1792 33.8483 21.8308 34.5 22.6167 34.5C23.4025 34.5 24.0542 33.8483 24.0542 33.0625V31.1458H26.8333C29.7467 31.1458 32.1042 28.9992 32.1042 26.3542C32.1042 24.6483 31.1075 23.1534 29.6125 22.31ZM18.6875 17.7292H25.6258C26.68 17.7292 27.5425 18.7833 27.5425 19.6458C27.5425 20.7 26.68 21.5625 25.6258 21.5625H18.6875V17.7292ZM26.8333 28.2708H18.6875V24.4375H25.6258H26.8333C28.1558 24.4375 29.2292 25.3 29.2292 26.3542C29.2292 27.4083 28.1558 28.2708 26.8333 28.2708Z" fill="white"/>
</svg>
