<svg width="46" height="46" viewBox="0 0 46 46" fill="none" xmlns="http://www.w3.org/2000/svg">
<path d="M28.75 42.1667C27.9642 42.1667 27.3125 41.515 27.3125 40.7292V5.27087C27.3125 4.48504 27.9642 3.83337 28.75 3.83337C29.5358 3.83337 30.1875 4.48504 30.1875 5.27087V40.7292C30.1875 41.515 29.5358 42.1667 28.75 42.1667Z" fill="white"/>
<path opacity="0.3" d="M11.4999 38.3333H22.9999V7.66663H11.4999C7.26409 7.66663 3.83325 11.0975 3.83325 15.3333V30.6666C3.83325 34.9025 7.26409 38.3333 11.4999 38.3333Z" fill="white"/>
<path opacity="0.3" d="M34.5 38.3333H28.75V7.66663H34.5C38.7358 7.66663 42.1667 11.0975 42.1667 15.3333V30.6666C42.1667 34.9025 38.7358 38.3333 34.5 38.3333Z" fill="white"/>
<path d="M13.4167 31.1458C12.6309 31.1458 11.9792 30.4941 11.9792 29.7083V16.2916C11.9792 15.5058 12.6309 14.8541 13.4167 14.8541C14.2026 14.8541 14.8542 15.5058 14.8542 16.2916V29.7083C14.8542 30.4941 14.2026 31.1458 13.4167 31.1458Z" fill="white"/>
</svg>
